HIERARCHY
ROOT Hips
{
	OFFSET 0.00000 0.00000 0.00000
	CHANNELS 6 Xposition Yposition Zposition Zrotation Yrotation Xrotation 
	JOINT LHipJoint
	{
		OFFSET 0 0 0
		CHANNELS 3 Zrotation Yrotation Xrotation
		JOINT LeftUpLeg
		{
			OFFSET 1.52977 -1.71332 0.88991
			CHANNELS 3 Zrotation Yrotation Xrotation
			JOINT LeftLeg
			{
				OFFSET 2.23949 -6.15296 0.00000
				CHANNELS 3 Zrotation Yrotation Xrotation
				JOINT LeftFoot
				{
					OFFSET 2.68396 -7.37412 0.00000
					CHANNELS 3 Zrotation Yrotation Xrotation
					JOINT LeftToeBase
					{
						OFFSET 0.20538 -0.56428 2.52710
						CHANNELS 3 Zrotation Yrotation Xrotation
						End Site
						{
							OFFSET 0.00000 -0.00000 1.29919
						}
					}
				}
			}
		}
	}
	JOINT RHipJoint
	{
		OFFSET 0 0 0
		CHANNELS 3 Zrotation Yrotation Xrotation
		JOINT RightUpLeg
		{
			OFFSET -1.45689 -1.71333 0.88991
			CHANNELS 3 Zrotation Yrotation Xrotation
			JOINT RightLeg
			{
				OFFSET -2.36700 -6.50329 0.00000
				CHANNELS 3 Zrotation Yrotation Xrotation
				JOINT RightFoot
				{
					OFFSET -2.69814 -7.41308 0.00000
					CHANNELS 3 Zrotation Yrotation Xrotation
					JOINT RightToeBase
					{
						OFFSET -0.18734 -0.51471 2.37479
						CHANNELS 3 Zrotation Yrotation Xrotation
						End Site
						{
							OFFSET -0.00000 -0.00000 1.22113
						}
					}
				}
			}
		}
	}
	JOINT LowerBack
	{
		OFFSET 0 0 0
		CHANNELS 3 Zrotation Yrotation Xrotation
		JOINT Spine
		{
			OFFSET 0.04294 2.14638 -0.31163
			CHANNELS 3 Zrotation Yrotation Xrotation
			JOINT Spine1
			{
				OFFSET -0.00400 2.17216 0.01486
				CHANNELS 3 Zrotation Yrotation Xrotation
				JOINT Neck
				{
					OFFSET 0 0 0
					CHANNELS 3 Zrotation Yrotation Xrotation
					JOINT Neck1
					{
						OFFSET 0.03869 1.76598 0.14916
						CHANNELS 3 Zrotation Yrotation Xrotation
						JOINT Head
						{
							OFFSET -0.00760 1.75513 -0.18948
							CHANNELS 3 Zrotation Yrotation Xrotation
							End Site
							{
								OFFSET -0.00601 1.82444 -0.08310
							}
						}
					}
				}
				JOINT LeftShoulder
				{
					OFFSET 0 0 0
					CHANNELS 3 Zrotation Yrotation Xrotation
					JOINT LeftArm
					{
						OFFSET 3.73696 0.92058 0.01733
						CHANNELS 3 Zrotation Yrotation Xrotation
						JOINT LeftForeArm
						{
							OFFSET 5.22771 -0.00000 0.00000
							CHANNELS 3 Zrotation Yrotation Xrotation
							JOINT LeftHand
							{
								OFFSET 3.45251 -0.00000 0.00000
								CHANNELS 3 Zrotation Yrotation Xrotation
								JOINT LeftFingerBase
								{
									OFFSET 0 0 0
									CHANNELS 3 Zrotation Yrotation Xrotation
									JOINT LeftHandIndex1
									{
										OFFSET 0.55212 -0.00000 0.00000
										CHANNELS 3 Zrotation Yrotation Xrotation
										End Site
										{
											OFFSET 0.44513 -0.00000 0.00000
										}
									}
								}
								JOINT LThumb
								{
									OFFSET 0 0 0
									CHANNELS 3 Zrotation Yrotation Xrotation
									End Site
									{
										OFFSET 0.45193 -0.00000 0.45193
									}
								}
							}
						}
					}
				}
				JOINT RightShoulder
				{
					OFFSET 0 0 0
					CHANNELS 3 Zrotation Yrotation Xrotation
					JOINT RightArm
					{
						OFFSET -3.63819 0.83094 -0.13694
						CHANNELS 3 Zrotation Yrotation Xrotation
						JOINT RightForeArm
						{
							OFFSET -5.23980 -0.00000 -0.00000
							CHANNELS 3 Zrotation Yrotation Xrotation
							JOINT RightHand
							{
								OFFSET -3.48042 -0.00000 -0.00000
								CHANNELS 3 Zrotation Yrotation Xrotation
								JOINT RightFingerBase
								{
									OFFSET 0 0 0
									CHANNELS 3 Zrotation Yrotation Xrotation
									JOINT RightHandIndex1
									{
										OFFSET -0.61871 -0.00000 0.00000
										CHANNELS 3 Zrotation Yrotation Xrotation
										End Site
										{
											OFFSET -0.49882 -0.00000 0.00000
										}
									}
								}
								JOINT RThumb
								{
									OFFSET 0 0 0
									CHANNELS 3 Zrotation Yrotation Xrotation
									End Site
									{
										OFFSET -0.50644 -0.00000 0.50644
									}
								}
							}
						}
					}
				}
			}
		}
	}
}
MOTION
Frames: 13
Frame Time: .0083333
3.3248 14.0206 -5.1997 -195.2940 -86.4260 206.0020 0.0000 0.0000 0.0000 -20.0586 -11.8310 -64.2115 14.5382 19.2692 73.8416 1.5389 3.0845 -24.7178 0.0185 -0.8778 -2.4127 0.0000 0.0000 0.0000 10.1915 9.4331 -55.2873 -27.4288 -18.6218 112.2116 -0.0359 2.4343 -3.5320 -0.4549 4.3268 -11.9980 0.1490 0.1793 32.7626 -1.5304 -0.6905 7.0591 -1.3922 -0.6428 -9.0624 0.8414 0.5963 -3.8017 1.7466 0.5351 -15.7128 0.4460 -0.0884 -4.5198 0.0000 0.0000 0.0000 -80.6209 -10.1224 32.9472 23.8429 -34.9977 -7.6163 -0.0000 0.0000 -25.5136 19.6328 12.9989 4.5876 -7.1250 0.0000 -0.0000 -7.0332 43.6397 0.2374 0.0000 0.0000 0.0000 84.5217 9.7811 34.2299 -27.9304 39.0520 -10.0798 0.0000 -0.0000 -5.2157 -21.0948 -7.4800 2.8749 7.1250 -0.0000 -0.0000 4.8984 -37.9489 0.8528
3.4371 14.0300 -5.2106 -195.6940 -86.4752 206.4940 0.0000 0.0000 0.0000 -19.9662 -11.8333 -64.5718 14.3750 19.2238 73.3465 1.4795 2.9458 -24.2010 0.0167 -0.8343 -2.2931 0.0000 0.0000 0.0000 10.7307 9.3896 -54.3137 -27.1717 -18.7193 111.4086 -0.0269 1.7466 -2.9786 -0.3415 3.7552 -10.3891 0.1664 0.1718 32.6690 -1.5377 -0.6896 7.0444 -1.4103 -0.6408 -9.0422 0.8227 0.5744 -3.8095 1.7566 0.5087 -15.6465 0.4528 -0.0984 -4.4936 0.0000 0.0000 0.0000 -80.6465 -10.1376 33.0137 23.8953 -35.0534 -7.6464 -0.0000 0.0000 -25.5842 19.5584 13.0012 4.5696 -7.1250 0.0000 -0.0000 -7.1008 43.6337 0.2407 0.0000 0.0000 0.0000 84.5343 9.7314 34.2327 -27.9638 39.0829 -10.1008 0.0000 -0.0000 -5.2372 -21.0912 -7.5000 2.8820 7.1250 -0.0000 -0.0000 4.9037 -37.9698 0.8512
3.5503 14.0389 -5.2222 -195.9140 -86.5272 206.8100 0.0000 0.0000 0.0000 -19.8541 -11.8508 -64.9355 14.2099 19.1765 72.8445 1.4180 2.8304 -23.6692 0.0145 -0.7782 -2.1386 0.0000 0.0000 0.0000 11.3033 9.4060 -53.3623 -26.8745 -18.8270 110.4851 -0.0211 0.9648 -2.5772 -0.2401 3.1532 -8.7056 0.1937 0.1631 32.5736 -1.5403 -0.6865 7.0294 -1.4295 -0.6379 -9.0215 0.8059 0.5539 -3.8265 1.7559 0.4825 -15.5790 0.4556 -0.1081 -4.4652 -0.0000 -0.0000 0.0000 -80.6733 -10.1469 33.0719 23.9534 -35.1150 -7.6797 -0.0000 0.0000 -25.6494 19.4806 12.9876 4.5454 -7.1250 0.0000 -0.0000 -7.1683 43.6110 0.2471 -0.0000 -0.0000 0.0000 84.5478 9.6862 34.2216 -27.9987 39.1150 -10.1228 0.0000 -0.0000 -5.2420 -21.0826 -7.5299 2.8921 7.1250 -0.0000 -0.0000 4.9146 -38.0011 0.8493
3.6640 14.0482 -5.2342 -196.2170 -86.5835 207.2010 0.0000 0.0000 0.0000 -19.7460 -11.8879 -65.2785 14.0399 19.1261 72.3264 1.3540 2.7543 -23.1258 0.0125 -0.7219 -1.9839 0.0000 0.0000 0.0000 11.8904 9.4615 -52.4064 -26.5320 -18.9447 109.4270 -0.0181 0.2275 -2.4671 -0.1676 2.6373 -7.2705 0.2216 0.1502 32.4825 -1.5417 -0.6887 7.0170 -1.4459 -0.6376 -8.9997 0.7932 0.5368 -3.8500 1.7438 0.4592 -15.5161 0.4538 -0.1163 -4.4372 0.0000 -0.0000 0.0000 -80.6993 -10.1440 33.1231 24.0242 -35.1898 -7.7205 -0.0000 0.0000 -25.7091 19.4255 12.9392 4.5150 -7.1250 0.0000 -0.0000 -7.2084 43.5544 0.2586 0.0000 -0.0000 0.0000 84.5565 9.6470 34.2165 -28.0344 39.1479 -10.1454 0.0000 -0.0000 -5.2533 -21.0743 -7.5706 2.9064 7.1250 -0.0000 -0.0000 4.9263 -38.0439 0.8462
3.7785 14.0573 -5.2470 -196.3890 -86.6458 207.4510 0.0000 0.0000 0.0000 -19.6226 -11.9376 -65.6031 13.8666 19.0731 71.7967 1.2881 2.7153 -22.5714 0.0111 -0.6802 -1.8693 0.0000 0.0000 0.0000 12.5126 9.5594 -51.4288 -26.1441 -19.0698 108.2360 -0.0200 -0.3550 -2.8239 -0.1241 2.2712 -6.2557 0.2510 0.1357 32.4078 -1.5369 -0.6924 7.0044 -1.4559 -0.6382 -8.9844 0.7859 0.5239 -3.8697 1.7231 0.4403 -15.4637 0.4481 -0.1225 -4.4137 0.0000 0.0000 0.0000 -80.7226 -10.1205 33.1803 24.1060 -35.2762 -7.7677 -0.0000 0.0000 -25.8097 19.4577 12.7555 4.4602 -7.1250 0.0000 -0.0000 -7.1430 43.3662 0.2896 0.0000 0.0000 0.0000 84.5602 9.6107 34.2206 -28.0720 39.1824 -10.1691 0.0000 -0.0000 -5.2709 -21.0783 -7.6049 2.9200 7.1250 -0.0000 -0.0000 4.9269 -38.0806 0.8418
3.8939 14.0664 -5.2605 -196.4970 -86.7181 207.6150 0.0000 0.0000 0.0000 -19.4909 -12.0009 -65.8924 13.6885 19.0168 71.2510 1.2209 2.7227 -22.0140 0.0110 -0.6784 -1.8642 0.0000 0.0000 0.0000 13.1642 9.6899 -50.4034 -25.7130 -19.1988 106.9210 -0.0342 -0.6242 -3.7796 -0.1132 2.1690 -5.9731 0.2829 0.1168 32.3562 -1.5263 -0.7011 6.9943 -1.4591 -0.6415 -8.9755 0.7817 0.5151 -3.8788 1.6988 0.4264 -15.4283 0.4407 -0.1268 -4.3987 0.0000 0.0000 0.0000 -80.7448 -10.0819 33.2397 24.1934 -35.3681 -7.8182 -0.0000 0.0000 -25.9468 19.5617 12.4747 4.3891 -7.1250 0.0000 -0.0000 -6.9951 43.0842 0.3324 0.0000 0.0000 0.0000 84.5527 9.5806 34.2469 -28.1100 39.2173 -10.1932 0.0000 -0.0000 -5.3150 -21.0893 -7.6289 2.9309 7.1250 -0.0000 -0.0000 4.9203 -38.1070 0.8375
4.0103 14.0754 -5.2751 -196.3240 -86.7987 207.4750 0.0000 0.0000 0.0000 -19.3342 -12.0671 -66.1484 13.5075 18.9578 70.6946 1.1542 2.7588 -21.4599 0.0120 -0.7086 -1.9474 0.0000 0.0000 0.0000 13.8582 9.8634 -49.3258 -25.2476 -19.3266 105.5101 -0.0742 -0.5008 -5.3529 -0.1361 2.3776 -6.5505 0.3174 0.0983 32.3316 -1.5065 -0.7085 6.9871 -1.4543 -0.6447 -8.9738 0.7825 0.5082 -3.8768 1.6741 0.4152 -15.4075 0.4324 -0.1305 -4.3912 0.0000 0.0000 0.0000 -80.7632 -10.0300 33.3063 24.2881 -35.4674 -7.8731 -0.0000 0.0000 -26.1159 19.7167 12.1263 4.3053 -7.1250 0.0000 -0.0000 -6.7907 42.7361 0.3812 0.0000 0.0000 0.0000 84.5372 9.5547 34.2894 -28.1530 39.2567 -10.2204 0.0000 -0.0000 -5.3730 -21.1091 -7.6547 2.9437 7.1250 -0.0000 -0.0000 4.9064 -38.1358 0.8317
4.1277 14.0845 -5.2907 -195.8580 -86.8877 207.0130 0.0000 0.0000 0.0000 -19.1565 -12.1338 -66.3621 13.3231 18.8957 70.1262 1.0886 2.8227 -20.9143 0.0143 -0.7712 -2.1195 0.0000 0.0000 0.0000 14.5877 10.0709 -48.1961 -24.7620 -19.4474 104.0475 -0.1566 -0.0168 -7.4811 -0.1988 2.8713 -7.9207 0.3590 0.0791 32.3381 -1.4795 -0.7152 6.9837 -1.4456 -0.6482 -8.9800 0.7856 0.5020 -3.8652 1.6559 0.4057 -15.3956 0.4259 -0.1340 -4.3888 0.0000 -0.0000 0.0000 -80.7772 -9.9696 33.3769 24.3862 -35.5700 -7.9301 -0.0000 0.0000 -26.3044 19.8991 11.7412 4.2127 -7.1250 0.0000 -0.0000 -6.5582 42.3512 0.4306 0.0000 -0.0000 0.0000 84.5130 9.5339 34.3532 -28.2002 39.2999 -10.2502 0.0000 -0.0000 -5.4518 -21.1405 -7.6801 2.9582 7.1250 -0.0000 -0.0000 4.8825 -38.1649 0.8241
4.2461 14.0935 -5.3073 -194.9010 -86.9800 206.0320 0.0000 0.0000 0.0000 -18.9489 -12.1916 -66.5403 13.1367 18.8310 69.5497 1.0241 2.9129 -20.3750 0.0178 -0.8626 -2.3708 0.0000 0.0000 0.0000 15.3538 10.3224 -47.0345 -24.2744 -19.5562 102.5870 -0.2914 0.6753 -9.9799 -0.2981 3.5105 -9.7034 0.4070 0.0628 32.3669 -1.4428 -0.7163 6.9883 -1.4319 -0.6498 -8.9860 0.7916 0.4966 -3.8499 1.6432 0.3979 -15.3880 0.4207 -0.1372 -4.3888 -0.0000 0.0000 0.0000 -80.7868 -9.9102 33.4399 24.4849 -35.6728 -7.9876 -0.0000 0.0000 -26.4779 20.0430 11.4036 4.1257 -7.1250 0.0000 -0.0000 -6.3712 42.0113 0.4719 -0.0000 0.0000 0.0000 84.4826 9.5230 34.4276 -28.2536 39.3486 -10.2841 0.0000 -0.0000 -5.5334 -21.1717 -7.7102 2.9745 7.1250 -0.0000 -0.0000 4.8594 -38.1992 0.8161
4.3653 14.1027 -5.3247 -193.4280 -87.0743 204.5070 0.0000 0.0000 0.0000 -18.7161 -12.2405 -66.6836 12.9484 18.7635 68.9653 0.9610 3.0213 -19.8423 0.0218 -0.9526 -2.6184 0.0000 0.0000 0.0000 16.1472 10.6197 -45.8634 -23.7980 -19.6506 101.1670 -0.4786 1.3830 -12.6616 -0.4228 4.1734 -11.5649 0.4653 0.0485 32.4137 -1.3981 -0.7121 6.9997 -1.4172 -0.6496 -8.9912 0.8004 0.4914 -3.8353 1.6372 0.3914 -15.3734 0.4172 -0.1400 -4.3861 0.0000 0.0000 0.0000 -80.7928 -9.8520 33.4916 24.5848 -35.7766 -8.0459 -0.0000 0.0000 -26.6178 20.1117 11.1922 4.0655 -7.1250 0.0000 -0.0000 -6.2743 41.7959 0.4981 0.0000 0.0000 0.0000 84.4470 9.5182 34.5119 -28.3142 39.4039 -10.3226 0.0000 -0.0000 -5.6185 -21.2033 -7.7373 2.9898 7.1250 -0.0000 -0.0000 4.8355 -38.2303 0.8083
4.4853 14.1116 -5.3431 -191.3690 -87.1652 202.3760 0.0000 0.0000 0.0000 -18.4561 -12.2798 -66.8038 12.7605 18.6940 68.3799 0.8979 3.1500 -19.3026 0.0257 -1.0352 -2.8456 0.0000 0.0000 0.0000 16.9635 10.9730 -44.7074 -23.3384 -19.7307 99.8030 -0.7058 1.8940 -15.3394 -0.5494 4.7484 -13.1924 0.5311 0.0375 32.4693 -1.3461 -0.7014 7.0186 -1.4010 -0.6468 -8.9913 0.8106 0.4876 -3.8241 1.6388 0.3877 -15.3502 0.4158 -0.1416 -4.3797 -0.0000 -0.0000 0.0000 -80.7960 -9.7995 33.5254 24.6804 -35.8756 -8.1019 -0.0000 0.0000 -26.7134 20.1029 11.1222 4.0385 -7.1250 0.0000 -0.0000 -6.2704 41.7214 0.5094 -0.0000 -0.0000 0.0000 84.4102 9.5239 34.5973 -28.3771 39.4611 -10.3625 0.0000 -0.0000 -5.6878 -21.2275 -7.7554 3.0005 7.1250 -0.0000 -0.0000 4.8169 -38.2512 0.8028
4.6061 14.1197 -5.3622 -188.8680 -87.2536 199.7830 0.0000 0.0000 0.0000 -18.1788 -12.3185 -66.9060 12.5740 18.6229 67.7971 0.8333 3.3004 -18.7430 0.0291 -1.1018 -3.0289 0.0000 0.0000 0.0000 17.7872 11.3752 -43.5849 -22.8921 -19.7983 98.4833 -0.9635 2.2246 -17.9360 -0.6692 5.2315 -14.5701 0.6029 0.0261 32.5331 -1.2897 -0.6895 7.0426 -1.3837 -0.6440 -8.9890 0.8225 0.4867 -3.8196 1.6458 0.3888 -15.3149 0.4158 -0.1409 -4.3675 -0.0000 -0.0000 0.0000 -80.7983 -9.7552 33.5360 24.7655 -35.9634 -8.1518 -0.0000 0.0000 -26.7522 20.0350 11.1838 4.0457 -7.1250 0.0000 -0.0000 -6.3408 41.7795 0.5060 -0.0000 -0.0000 0.0000 84.3724 9.5398 34.6875 -28.4390 39.5172 -10.4018 0.0000 -0.0000 -5.7435 -21.2421 -7.7658 3.0067 7.1250 -0.0000 -0.0000 4.8056 -38.2633 0.7994
4.7277 14.1256 -5.3820 -185.8980 -87.3383 196.7090 0.0000 0.0000 0.0000 -17.8849 -12.3526 -67.0130 12.3922 18.5516 67.2268 0.7660 3.4630 -18.1422 0.0312 -1.1401 -3.1345 0.0000 0.0000 0.0000 18.6121 11.8280 -42.5186 -22.4537 -19.8550 97.1908 -1.2444 2.4247 -20.4268 -0.7843 5.6537 -15.7829 0.6802 0.0133 32.5988 -1.2294 -0.6775 7.0703 -1.3652 -0.6414 -8.9832 0.8369 0.4893 -3.8176 1.6573 0.3951 -15.2718 0.4167 -0.1376 -4.3520 -0.0000 -0.0000 0.0000 -80.7976 -9.7131 33.5329 24.8413 -36.0414 -8.1964 -0.0000 0.0000 -26.7730 19.9634 11.2900 4.0677 -7.1250 0.0000 -0.0000 -6.4223 41.8842 0.4959 -0.0000 -0.0000 0.0000 84.3367 9.5673 34.7797 -28.4953 39.5682 -10.4377 0.0000 -0.0000 -5.7751 -21.2575 -7.7602 3.0069 7.1250 -0.0000 -0.0000 4.7919 -38.2584 0.7977
